<svg width="304" height="233" viewBox="0 0 304 233" fill="none" xmlns="http://www.w3.org/2000/svg">
<path d="M165.1 183.768C161.376 189.673 156.64 194.872 151.198 199.41C121.676 224.019 70.7842 228.91 40.3371 215.647C33.3092 212.585 27.3608 208.553 23.0206 203.552C-3.54898 173.017 -14.7849 92.2508 40.271 61.6715C157.301 -3.34251 193.762 138.56 165.1 183.768Z" fill="#185ADB"/>
<path d="M151.199 199.411C121.677 224.02 70.7849 228.911 40.3378 215.648C40.7785 212.74 41.9902 209.898 44.1272 207.298C44.1272 207.298 36.5264 197.869 32.9574 174.824C28.441 145.611 33.9708 136.358 33.9708 136.358C28.0004 130.211 23.0654 123.536 20.642 116.486C17.2932 106.748 22.3163 98.9268 28.3749 96.1068C34.4335 93.2868 41.0428 97.0541 47.1455 98.4201H47.2115C47.1895 98.5743 47.1675 98.7285 47.1675 98.8827C46.8811 102.87 51.045 104.324 60.3642 103.774C60.3862 103.818 66.1363 115.406 69.8376 122.897C70.5426 124.307 71.1594 125.585 71.6661 126.598C78.4738 126.113 97.4647 118.645 99.8881 117.852C99.7118 117.499 99.2051 116.464 98.5001 114.988C96.2529 110.273 91.9128 101.02 88.8725 94.5426C95.4378 90.9515 115.817 79.275 122.911 81.434C130.005 83.6151 135.557 89.1009 132.098 108.576C128.903 126.51 121.963 147.219 120.884 150.414C132.164 168.523 148.026 194.432 148.026 194.432L151.199 199.411Z" fill="white"/>
<path d="M98.5218 114.944C96.2747 110.229 91.9345 100.976 88.8942 94.4986C86.9775 90.4008 85.5675 87.4045 85.5675 87.4045C85.5675 87.4045 96.0323 76.1026 96.0323 74.9129C96.0323 73.7232 85.2811 74.5383 73.9791 76.411C71.4015 81.6324 62.2585 83.9016 62.2585 83.9016C64.3735 90.577 61.5535 99.9843 58.2268 98.1337C57.2795 97.605 56.3321 96.5915 55.5611 95.3358C50.9786 94.6528 47.718 95.3798 47.2112 98.3761C47.1892 98.5303 47.1672 98.6845 47.1672 98.8387C46.8808 102.826 51.0447 104.28 60.3638 103.73C60.3859 103.774 66.136 115.362 69.8372 122.853C70.5422 124.263 71.1591 125.541 71.6658 126.554C78.4735 126.069 97.4643 118.601 99.8878 117.808C99.7336 117.477 99.2489 116.442 98.5218 114.944ZM72.0183 91.282C71.4896 91.4803 70.8947 91.2159 70.6744 90.6872L69.7491 88.2197C69.5509 87.691 69.8152 87.0961 70.344 86.8758C70.4541 86.8317 70.5863 86.8097 70.6965 86.8097C71.1151 86.8097 71.5116 87.0741 71.6658 87.4927L72.5911 89.9602C72.8115 90.4889 72.5471 91.0838 72.0183 91.282ZM76.9313 87.6028C76.4025 87.8011 75.8077 87.5367 75.5874 87.008L74.6621 84.5405C74.4638 84.0117 74.7282 83.4169 75.2569 83.1966C75.3671 83.1525 75.4993 83.1305 75.6314 83.1305C76.05 83.1305 76.4466 83.3949 76.6008 83.7914L77.5261 86.2589C77.7244 86.8097 77.46 87.4046 76.9313 87.6028Z" fill="white"/>
<path d="M77.5264 86.2587C77.7247 86.7875 77.4603 87.3823 76.9315 87.6026C76.4028 87.8009 75.808 87.5365 75.5876 87.0078L74.6403 84.5403C74.442 84.0115 74.7064 83.4167 75.2351 83.1964C75.3453 83.1523 75.4775 83.1303 75.6097 83.1303C76.0283 83.1303 76.4248 83.3947 76.579 83.7912L77.5264 86.2587Z" fill="white"/>
<path d="M72.6133 89.9379C72.8116 90.4667 72.5472 91.0615 72.0185 91.2818C71.4897 91.4801 70.8949 91.2157 70.6745 90.687L69.7272 88.2195C69.5289 87.6907 69.7933 87.0959 70.3221 86.8756C70.4322 86.8315 70.5644 86.8095 70.6966 86.8095C71.1152 86.8095 71.5117 87.0739 71.6659 87.4704L72.6133 89.9379Z" fill="white"/>
<path d="M71.9961 91.2816C71.4674 91.4798 70.8725 91.2155 70.6522 90.6867L69.7269 88.2192C69.5286 87.6905 69.793 87.0956 70.3217 86.8753C70.8505 86.677 71.4453 86.9414 71.6656 87.4702L72.591 89.9377C72.8113 90.4884 72.5469 91.0833 71.9961 91.2816Z" fill="#0A1931"/>
<path d="M76.9312 87.6023C76.4025 87.8006 75.8076 87.5362 75.5873 87.0075L74.662 84.54C74.4637 84.0112 74.7281 83.4164 75.2569 83.1961C75.7856 82.9978 76.3805 83.2622 76.6008 83.7909L77.5261 86.2584C77.7244 86.8092 77.46 87.404 76.9312 87.6023Z" fill="#0A1931"/>
<path d="M156.375 9.6561C180.411 7.65127 229.254 7.14455 231.435 9.6561C233.638 12.1677 237.538 78.3052 234.718 85.3552C231.898 92.4052 174.375 93.3525 162.632 93.1983C150.867 93.0441 149.149 88.8141 148.378 81.6099C147.585 74.4057 146.505 26.1354 146.505 20.3412C146.505 14.503 146.968 10.4272 156.375 9.6561Z" fill="white"/>
<path d="M165.364 93.9695C164.284 93.9695 163.381 93.9695 162.654 93.9475C156.86 93.8594 153.137 92.8019 150.867 90.5767C148.752 88.4838 148.047 85.5095 147.629 81.6761C146.836 74.3177 145.734 25.4526 145.734 20.3193C145.734 14.1506 146.483 9.70029 156.309 8.88513C167.876 7.91576 185.831 7.25483 202.09 7.18873C210.175 7.14467 217.137 7.27686 222.204 7.54123C231.017 8.00389 231.678 8.75294 232.03 9.1495C232.317 9.47997 233 10.2511 234.057 21.487C234.696 28.2065 235.291 36.8207 235.754 45.7653C236.172 53.9168 237.362 80.883 235.467 85.6417C234.982 86.8534 233.264 88.682 224.077 90.3344C218.657 91.3038 211.255 92.1189 202.09 92.7358C187.88 93.7051 172.833 93.9695 165.364 93.9695ZM156.375 9.65623L156.441 10.4273C147.695 11.1543 147.276 14.4811 147.276 20.3193C147.276 26.8185 148.4 74.538 149.149 81.5219C149.876 88.1974 151.154 92.2731 162.654 92.4273C168.492 92.5155 185.787 92.3172 201.98 91.2156C229.409 89.365 233.528 86.3027 234.013 85.0689C235.181 82.1608 235.247 66.9152 234.211 46.228C233.176 25.717 231.678 11.617 230.863 10.1629C229.981 9.5681 222.909 8.62076 201.627 8.73091C185.545 8.81904 167.809 9.47997 156.441 10.4053L156.375 9.65623Z" fill="#0A1931"/>
<path d="M218.944 10.6034C218.415 16.9043 222.535 21.1343 228.021 21.5969C233.507 22.0596 239.036 18.6227 239.565 12.3218C240.094 6.02089 235.313 0.491066 229.827 0.0284115C224.342 -0.412212 219.473 4.32449 218.944 10.6034Z" fill="#FFC947"/>
<path d="M166.995 42.3945C165.166 42.3945 163.492 42.2844 161.993 41.998C161.685 41.9319 161.443 41.6896 161.377 41.3811C161.31 41.0727 161.443 40.7642 161.707 40.588C161.773 40.5439 168.845 35.9835 176.027 31.4891C190.7 22.2801 191.515 22.192 191.89 22.1699C192.308 22.1259 193.123 22.0598 207.84 29.6826C215.022 33.4058 222.094 37.1732 222.161 37.2172C222.469 37.3714 222.623 37.7239 222.557 38.0764C222.491 38.4069 222.183 38.6713 221.852 38.6713C221.61 38.6933 198.411 39.7949 190.259 40.2135C187.461 40.3456 184.201 40.7642 180.72 41.2049C176.005 41.7777 171.158 42.3945 166.995 42.3945ZM164.329 40.7422C168.845 41.1167 174.794 40.3677 180.566 39.6406C184.069 39.2 187.373 38.7814 190.215 38.6272C196.671 38.2967 212.555 37.5257 219.01 37.2172C208.567 31.6654 193.873 24.0646 192.066 23.668C190.237 24.3069 174.838 34.0007 164.329 40.7422Z" fill="#0A1931"/>
<path d="M282.614 145.742C282.57 145.742 282.526 145.742 282.482 145.72C282.063 145.654 281.777 145.258 281.843 144.839C281.975 144.112 294.445 71.1008 295.766 62.9052C297.221 54.0046 297.683 49.6424 292.858 48.0782C290.391 47.285 279.64 47.3952 266.09 48.3646C252.299 49.356 240.292 50.8761 235.555 52.2421C235.137 52.3522 234.718 52.1319 234.608 51.7133C234.498 51.2947 234.718 50.8761 235.137 50.766C241.019 49.0696 255.449 47.5935 266.002 46.8444C277.084 46.0513 290.104 45.5666 293.343 46.6241C299.666 48.673 298.675 54.7536 297.309 63.1695C295.987 71.3871 283.495 144.376 283.385 145.125C283.297 145.478 282.966 145.742 282.614 145.742Z" fill="#0A1931"/>
<path d="M268.823 144.751C268.778 144.751 268.734 144.751 268.69 144.751C268.272 144.685 267.985 144.289 268.051 143.87C268.162 143.121 279.97 69.6471 280.874 59.2484C280.962 58.257 280.896 56.869 280.036 56.0098C279.331 55.2828 278.142 54.9523 276.511 55.0184C275.123 55.0845 273.713 55.1506 272.281 55.2167C257.498 55.9437 240.733 56.7368 235.908 57.9265C235.489 58.0367 235.071 57.7723 234.983 57.3537C234.872 56.9351 235.137 56.5165 235.555 56.4284C240.534 55.2167 256.639 54.4236 272.237 53.6745C273.669 53.6084 275.079 53.5423 276.467 53.4762C278.56 53.3661 280.147 53.8728 281.182 54.9303C282.173 55.9437 282.592 57.4859 282.438 59.3806C281.535 69.8454 269.726 143.363 269.616 144.112C269.505 144.487 269.175 144.751 268.823 144.751Z" fill="#0A1931"/>
<path d="M252.409 202.451C252.387 202.451 252.365 202.451 252.365 202.451C252.123 202.429 246.417 202.032 224.959 198.661C203.676 195.313 198.609 194.519 198.609 184.804C198.587 167.465 207.488 121.31 210.616 106.505C210.704 106.086 211.123 105.822 211.519 105.91C211.938 105.998 212.202 106.417 212.114 106.813C208.193 125.386 200.129 168.875 200.151 184.782C200.151 192.889 202.993 193.638 225.201 197.119C246.549 200.468 252.409 200.886 252.475 200.886C252.894 200.908 253.224 201.283 253.202 201.702C253.158 202.12 252.806 202.451 252.409 202.451Z" fill="#0A1931"/>
<path d="M235.445 195.18C231.612 195.18 219.539 192.338 218.349 191.92C217.005 191.435 216.675 189.144 216.895 187.646C217.094 186.17 217.799 185.288 218.812 185.222C223.747 184.892 235.952 186.963 237.847 188.769C238.904 189.761 239.301 191.391 238.86 192.801C238.464 194.079 237.45 194.916 236.128 195.136C235.93 195.158 235.71 195.18 235.445 195.18ZM220.134 186.742C219.693 186.742 219.275 186.764 218.9 186.786C218.768 186.786 218.592 187.073 218.481 187.58C218.195 188.857 218.592 190.311 218.9 190.488C220.112 190.928 232.097 193.66 235.401 193.66C235.6 193.66 235.754 193.66 235.886 193.638C236.833 193.484 237.23 192.867 237.384 192.382C237.649 191.523 237.406 190.51 236.789 189.915C235.622 188.813 225.862 186.742 220.134 186.742Z" fill="#0A1931"/>
<path d="M259.768 187.932C259.724 187.932 259.702 187.932 259.657 187.932C259.525 187.91 247.1 186.302 234.586 184.187C227.228 182.953 221.279 181.786 216.895 180.728C209.338 178.899 207.906 177.776 207.488 176.917C206.298 174.427 207.664 159.909 209.03 148.166C210.55 135.146 212.687 120.274 213.921 114.326C214.009 113.907 214.405 113.643 214.824 113.731C215.243 113.819 215.507 114.216 215.419 114.635C214.207 120.561 212.048 135.366 210.55 148.342C208.391 166.981 208.259 174.978 208.854 176.234C208.942 176.41 209.779 177.423 217.269 179.23C221.61 180.265 227.536 181.433 234.85 182.667C247.342 184.76 259.724 186.39 259.856 186.412C260.274 186.456 260.583 186.853 260.517 187.271C260.473 187.646 260.142 187.932 259.768 187.932Z" fill="#0A1931"/>
<path d="M275.872 143.583C275.828 143.583 275.784 143.583 275.74 143.561C275.322 143.495 275.035 143.099 275.123 142.68C275.344 141.446 275.806 138.935 276.445 135.476C280.058 115.934 289.686 64.0508 288.276 56.4721C288.188 56.0535 288.474 55.657 288.893 55.5688C289.311 55.4807 289.708 55.7671 289.796 56.1857C291.096 63.1476 284.156 102.363 277.965 135.74C277.326 139.199 276.864 141.689 276.643 142.922C276.577 143.319 276.247 143.583 275.872 143.583Z" fill="#0A1931"/>
<path d="M290.453 176.366C297.386 166.396 295.328 152.974 285.857 146.389C276.385 139.804 263.087 142.548 256.155 152.519C249.222 162.49 251.28 175.911 260.752 182.496C270.223 189.082 283.521 186.337 290.453 176.366Z" fill="#FFC947"/>
<path d="M190.502 164.359C190.458 164.359 190.391 164.359 190.347 164.337C180.279 162.244 172.965 154.643 170.277 143.473C170.167 143.055 170.431 142.636 170.85 142.548C171.268 142.438 171.687 142.702 171.775 143.121C174.331 153.696 181.204 160.878 190.656 162.839C191.074 162.927 191.339 163.323 191.251 163.742C191.185 164.095 190.854 164.359 190.502 164.359Z" fill="#0A1931"/>
<path d="M153.754 123.513C155.406 121.288 174.133 118.314 175.631 120.12C176.997 121.773 180.081 134.088 176.997 134.771C172.899 135.674 158.733 138.318 157.147 136.291C155.561 134.22 151.551 126.465 153.754 123.513Z" fill="white"/>
<path d="M160.672 137.789C157.83 137.789 156.926 137.261 156.53 136.732C155.12 134.925 150.515 126.553 153.115 123.05C154.723 120.891 166.532 118.953 171.842 118.798C175.014 118.71 175.829 119.173 176.204 119.614C177.614 121.31 179.927 130.431 178.737 133.868C178.341 135.013 177.636 135.388 177.129 135.498C175.102 135.939 170.52 136.842 166.18 137.371C163.822 137.679 162.038 137.789 160.672 137.789ZM172.591 120.341C171.181 120.341 169.154 120.473 166.444 120.847C160.055 121.707 154.922 123.205 154.349 123.998C152.608 126.333 155.891 133.449 157.742 135.806C157.764 135.851 158.579 136.776 166.025 135.873C170.299 135.344 174.816 134.463 176.821 134.022C177.019 133.978 177.173 133.758 177.305 133.383C178.319 130.453 176.005 121.839 175.058 120.627C174.838 120.473 174.023 120.341 172.591 120.341Z" fill="#0A1931"/>
<path d="M166.047 131.048C164.307 131.048 161.597 130.1 156.618 128.25C156.221 128.096 156.023 127.655 156.155 127.258C156.309 126.862 156.75 126.664 157.147 126.796C163.073 129.021 165.717 129.858 166.752 129.373C167.457 129.043 170.409 125.496 172.723 122.412C172.987 122.081 173.472 121.993 173.802 122.257C174.133 122.522 174.221 123.006 173.956 123.337C172.767 124.923 168.779 130.122 167.413 130.761C167.017 130.938 166.576 131.048 166.047 131.048Z" fill="#0A1931"/>
<path d="M208.722 65.0642C208.347 65.0642 208.017 64.7999 207.973 64.4253C207.862 63.7203 205.042 47.1088 205.329 38.6048C205.351 38.1862 205.703 37.8557 206.122 37.8557C206.54 37.8778 206.871 38.2303 206.871 38.6489C206.585 46.9987 209.449 63.9847 209.493 64.161C209.559 64.5795 209.272 64.9761 208.854 65.0422C208.788 65.0642 208.744 65.0642 208.722 65.0642Z" fill="#0A1931"/>
<path d="M216.014 64.4035C215.595 64.4035 215.265 64.073 215.243 63.6544C215.243 63.4561 214.626 43.2756 213.723 38.3626C213.657 37.944 213.921 37.5475 214.339 37.4593C214.758 37.3712 215.155 37.6576 215.243 38.0762C216.146 43.1213 216.763 62.7731 216.785 63.6103C216.807 64.0289 216.454 64.3814 216.036 64.4035C216.036 64.4035 216.036 64.4035 216.014 64.4035Z" fill="#0A1931"/>
<path d="M207.334 71.1672C206.981 71.1672 206.673 70.9248 206.585 70.5723C206.541 70.3961 206.496 70.2198 206.452 70.0436C205.99 68.1489 205.593 66.5186 206.408 65.2408C206.981 64.3595 207.995 63.8088 209.669 63.5003C212.158 63.0156 218.041 62.2005 218.658 64.8883C219.01 66.4084 219.076 69.8233 219.076 69.9775C219.076 70.3961 218.746 70.7486 218.327 70.7706C218.327 70.7706 218.327 70.7706 218.305 70.7706C217.887 70.7706 217.534 70.4401 217.534 70.0216C217.534 69.9775 217.468 66.6287 217.16 65.2628C217.049 64.7561 214.736 64.1392 209.955 65.0425C208.766 65.2628 208.017 65.6153 207.708 66.1C207.246 66.827 207.554 68.1048 207.951 69.7131C207.995 69.8894 208.039 70.0656 208.083 70.2419C208.193 70.6605 207.928 71.0791 207.51 71.1672C207.444 71.1451 207.378 71.1672 207.334 71.1672Z" fill="#0A1931"/>
<path d="M189.554 66.254C189.158 66.254 188.827 65.9456 188.783 65.549C188.783 65.505 188.299 60.4819 187.505 56.1417C186.602 51.1627 185.985 46.1175 185.479 39.7946C185.434 39.376 185.765 39.0015 186.184 38.9574C186.602 38.9133 186.977 39.2438 187.021 39.6624C187.527 45.9413 188.144 50.9424 189.026 55.8553C189.819 60.2395 190.303 65.3287 190.303 65.3728C190.347 65.7914 190.039 66.1659 189.598 66.21C189.598 66.254 189.576 66.254 189.554 66.254Z" fill="#0A1931"/>
<path d="M198.565 65.8133C198.235 65.8133 197.926 65.593 197.838 65.2625C196.979 62.5086 196.516 56.9127 196.032 51.0084C195.701 46.9546 195.349 42.7687 194.864 39.2437C194.798 38.8251 195.106 38.4285 195.525 38.3625C195.943 38.2964 196.34 38.6048 196.406 39.0234C196.913 42.5704 197.243 46.8004 197.596 50.8762C198.08 56.6924 198.543 62.2002 199.336 64.7999C199.468 65.1964 199.226 65.6371 198.83 65.7692C198.719 65.7913 198.653 65.8133 198.565 65.8133Z" fill="#0A1931"/>
<path d="M188.277 72.3568C187.902 72.3568 187.572 72.0704 187.506 71.6959C187.439 71.1892 187.351 70.7265 187.285 70.3079C186.933 67.9947 186.734 66.7169 187.417 65.7695C187.99 64.9984 188.982 64.7561 189.973 64.6239C193.013 64.1612 198.984 64.2273 200.284 64.3375C202.399 64.5358 202.355 68.0387 202.134 70.6604C202.09 71.079 201.716 71.4095 201.297 71.3654C200.878 71.3214 200.548 70.9468 200.592 70.5282C200.901 66.7609 200.306 65.9017 200.129 65.8797C198.918 65.7695 193.079 65.7254 190.193 66.1661C189.312 66.2983 188.827 66.4745 188.651 66.7169C188.343 67.1354 188.541 68.3692 188.805 70.0876C188.871 70.5062 188.938 70.9909 189.026 71.4976C189.092 71.9162 188.805 72.3128 188.365 72.3789C188.343 72.3568 188.321 72.3568 188.277 72.3568Z" fill="#0A1931"/>
<path d="M170.277 67.9725C169.947 67.9725 169.638 67.7522 169.528 67.3997C168.162 62.5088 167.237 47.7259 167.435 41.5792C167.457 41.1606 167.788 40.8301 168.206 40.8301H168.228C168.647 40.8521 168.977 41.2046 168.977 41.6232C168.757 48.2766 169.771 62.5308 171.026 66.9811C171.136 67.3997 170.894 67.8183 170.498 67.9284C170.409 67.9505 170.343 67.9725 170.277 67.9725Z" fill="#0A1931"/>
<path d="M178.473 67.7079C178.054 67.7079 177.702 67.3554 177.702 66.9368C177.702 63.8965 176.644 45.5886 175.895 41.0502C175.829 40.6316 176.116 40.235 176.534 40.169C176.953 40.1029 177.349 40.3893 177.415 40.8079C178.209 45.5446 179.244 63.8084 179.244 66.9589C179.244 67.3554 178.892 67.7079 178.473 67.7079Z" fill="#0A1931"/>
<path d="M168.118 73.3039C167.721 73.3039 167.391 73.0175 167.347 72.621C167.016 69.7349 166.84 68.2808 167.611 67.3996C168.294 66.6064 169.396 66.5844 171.379 66.5183L171.995 66.4963C175.41 66.3861 177.151 66.4302 178.693 66.4743C179.156 66.4963 179.596 66.4963 180.037 66.4963C180.83 66.4963 181.425 66.7386 181.843 67.2233C182.68 68.1927 182.46 69.8671 182.174 72.0041C182.13 72.4227 181.733 72.7311 181.315 72.665C180.896 72.621 180.588 72.2244 180.654 71.8058C180.852 70.3297 181.072 68.6553 180.676 68.2147C180.566 68.1046 180.345 68.0385 180.015 68.0385C179.552 68.0385 179.111 68.0164 178.649 68.0164C177.129 67.9724 175.41 67.9283 172.039 68.0385L171.423 68.0605C170.079 68.1046 169.021 68.1266 168.779 68.413C168.448 68.7875 168.647 70.4839 168.889 72.4447C168.933 72.8633 168.625 73.2599 168.206 73.3039C168.162 73.3039 168.14 73.3039 168.118 73.3039Z" fill="#0A1931"/>
<path d="M164.108 78.0849C163.712 78.0849 163.381 77.7985 163.337 77.4019C163.051 74.8463 162.985 73.5685 163.69 72.7313C164.219 72.0924 165.034 71.9382 166.091 71.8721C168.405 71.7399 217.843 69.4486 219.715 69.4046C220.442 69.4046 221.015 69.6029 221.412 70.0215C222.205 70.8586 222.161 72.3568 222.006 74.3836C221.984 74.8022 221.61 75.1327 221.191 75.0886C220.773 75.0666 220.442 74.6921 220.486 74.2735C220.552 73.3041 220.685 71.4975 220.31 71.079C220.222 70.9908 220.046 70.9468 219.781 70.9468C217.909 70.9688 168.537 73.26 166.224 73.3922C165.474 73.4363 165.056 73.5464 164.902 73.7007C164.571 74.0752 164.725 75.5733 164.902 77.2036C164.946 77.6222 164.637 78.0188 164.219 78.0628C164.175 78.0628 164.153 78.0849 164.108 78.0849Z" fill="#0A1931"/>
<path d="M163.536 84.2315C162.126 84.2315 161.883 84.1655 161.729 84.1214C159.746 83.5706 159.702 81.1031 159.658 79.2966V79.0102C159.592 76.785 161.861 76.6528 164.99 76.4766C165.54 76.4325 166.135 76.4105 166.774 76.3664C168.625 76.2342 179.156 75.7495 190.281 75.2428C204.315 74.6039 220.222 73.8769 221.632 73.7006C223.548 73.4803 224.804 73.4583 225.641 74.1192C226.104 74.4717 226.368 75.0225 226.457 75.7275L226.479 75.9919C226.677 77.5341 226.985 80.1117 224.628 80.4202C223.725 80.5303 208.457 81.6759 193.608 82.6673C173.626 83.9672 166.311 84.2315 163.536 84.2315ZM161.2 78.9881V79.2966C161.222 80.6845 161.266 82.403 162.148 82.6673C162.676 82.7995 166.796 82.8876 193.674 81.1031C209.272 80.0677 223.681 78.9881 224.452 78.878C225.091 78.7899 225.223 78.1509 224.98 76.1681L224.958 75.9038C224.914 75.4852 224.782 75.375 224.716 75.3309C224.275 75.0005 222.954 75.1106 221.852 75.2428C220.376 75.4191 205.13 76.1241 190.392 76.785C179.266 77.2917 168.757 77.7764 166.928 77.9086C166.289 77.9527 165.673 77.9967 165.122 78.0188C162.015 78.195 161.178 78.3492 161.2 78.9881Z" fill="#0A1931"/>
<path d="M45.7129 232.766C45.4926 232.766 45.2722 232.678 45.118 232.501C41.8354 228.69 39.8746 224.328 39.4781 219.878C39.0595 215.317 40.3152 210.955 43.1573 207.276C41.549 205.028 35.3362 195.291 32.2078 174.934C27.7134 145.787 33.089 136.357 33.3313 135.961C33.5517 135.586 34.0143 135.476 34.3889 135.696C34.7634 135.917 34.8735 136.379 34.6532 136.754C34.6092 136.842 29.3437 146.249 33.7279 174.692C37.2088 197.207 44.6554 206.725 44.7435 206.813C44.9638 207.099 44.9638 207.496 44.7435 207.782C39.1696 214.59 39.7865 223.909 46.3077 231.488C46.5941 231.818 46.5501 232.303 46.2196 232.567C46.0654 232.7 45.8891 232.766 45.7129 232.766Z" fill="#0A1931"/>
<path d="M58.1604 207.716C57.9181 207.716 57.6537 207.584 57.5215 207.364C57.2792 207.011 57.3893 206.527 57.7418 206.306C64.3732 201.988 78.1647 198.948 93.7187 198.397C109.735 197.824 123.549 199.961 130.709 204.103C131.084 204.323 131.194 204.786 130.995 205.161C130.797 205.535 130.312 205.645 129.938 205.447C123.02 201.437 109.515 199.388 93.7848 199.939C78.4952 200.49 64.9901 203.42 58.601 207.606C58.4468 207.672 58.2926 207.716 58.1604 207.716Z" fill="#0A1931"/>
<path d="M71.9739 134.132C71.6434 134.132 71.335 133.912 71.2248 133.581C70.5639 131.312 71.4672 129.748 72.04 129.021L66.0255 116.838C61.7955 108.289 60.3855 105.469 59.9449 104.544C53.3796 104.897 49.48 104.192 47.6515 102.341C46.7482 101.438 46.3296 100.226 46.4397 98.794C46.5499 97.384 47.1227 96.2825 48.1582 95.5114C50.0749 94.1014 53.5779 93.9692 58.5128 95.1148C58.9314 95.2029 59.1958 95.6215 59.0856 96.0401C58.9975 96.4587 58.5789 96.7231 58.1603 96.6129C53.7321 95.5775 50.5816 95.6215 49.0615 96.7451C48.4005 97.2298 48.048 97.9348 47.9819 98.9042C47.9158 99.8956 48.1582 100.667 48.753 101.262C50.2732 102.804 54.0625 103.354 60.3855 102.98C60.6939 102.958 60.9803 103.134 61.1345 103.421C61.2227 103.597 73.1856 127.743 73.7143 128.8C73.7143 128.823 73.7364 128.823 73.7364 128.823C73.8906 129.175 73.7804 129.461 73.6923 129.594C73.6262 129.704 73.5161 129.792 73.4059 129.858C73.0754 130.233 72.2383 131.356 72.767 133.141C72.8772 133.559 72.6569 133.978 72.2383 134.088C72.1061 134.11 72.04 134.132 71.9739 134.132Z" fill="#0A1931"/>
<path d="M65.8052 74.7141C70.0132 65.4611 76.5785 71.1892 74.0008 76.4106C71.4232 81.6319 62.2803 83.9011 62.2803 83.9011C64.3953 90.5766 61.5753 99.9839 58.2486 98.1333C55.6048 96.6792 52.939 91.3036 53.8644 87.7125C56.3759 77.8205 62.6989 69.3165 65.8052 74.7141Z" fill="#0A1931"/>
<path d="M59.1078 99.1466C58.6892 99.1466 58.2927 99.0365 57.8741 98.8162C54.9219 97.1858 52.0799 91.5238 53.1154 87.5141C54.9219 80.4421 59.1078 72.8194 63.0074 72.2906C63.7564 72.1805 64.7699 72.3126 65.6952 73.2379C67.5678 69.8231 69.6387 69.1402 70.7623 69.03C72.1944 68.8978 73.5823 69.6028 74.4636 70.9026C75.5872 72.555 75.6753 74.7801 74.7279 76.7409C72.4367 81.3454 65.607 83.7468 63.2717 84.4298C64.6597 89.8715 63.1836 96.5469 60.8042 98.4857C60.2535 98.9263 59.6807 99.1466 59.1078 99.1466ZM63.448 73.8108C63.3378 73.8108 63.2717 73.8328 63.2056 73.8328C60.6941 74.1853 56.6404 79.9134 54.6135 87.9107C53.7983 91.1052 56.2658 96.1504 58.6452 97.4722C58.9316 97.6265 59.3061 97.7366 59.8349 97.318C61.6855 95.7979 63.2056 89.2987 61.5753 84.1434C61.5092 83.9451 61.5313 83.7248 61.6414 83.5265C61.7516 83.3503 61.9278 83.196 62.1261 83.152C62.2142 83.1299 70.9606 80.8828 73.34 76.0579C74.1992 74.3175 73.8247 72.7092 73.1858 71.7619C72.613 70.9247 71.7758 70.4841 70.8945 70.5722C69.3523 70.7044 67.7661 72.3347 66.5323 75.0225C66.4222 75.2869 66.1578 75.4631 65.8714 75.4631C65.585 75.4851 65.3206 75.3309 65.1664 75.0886C64.4834 73.965 63.8225 73.8108 63.448 73.8108Z" fill="#0A1931"/>
<path d="M73.186 98.4857C71.5998 98.4857 69.2865 98.0891 67.1054 96.7452C66.7529 96.5249 66.6207 96.0402 66.8631 95.6877C67.0834 95.3352 67.5681 95.203 67.9205 95.4454C70.6965 97.1638 73.6487 97.0757 74.3757 96.8334C74.7723 96.7012 75.2129 96.9215 75.3451 97.3401C75.4772 97.7366 75.2569 98.1773 74.8383 98.3094C74.4858 98.3976 73.913 98.4857 73.186 98.4857Z" fill="#0A1931"/>
<path d="M56.2659 100.843C56.1116 100.843 55.9574 100.799 55.8252 100.689C55.3626 100.468 52.6527 99.7414 50.8902 100.16C50.4716 100.27 50.0531 100.006 49.9649 99.5871C49.8548 99.1686 50.1192 98.75 50.5377 98.6618C52.7849 98.1111 56.3099 98.9923 56.8166 99.521C57.1251 99.8295 57.1251 100.314 56.8166 100.623C56.6624 100.777 56.4641 100.843 56.2659 100.843Z" fill="#0A1931"/>
<path d="M99.9096 118.6C99.6232 118.6 99.3588 118.446 99.2266 118.182C98.1251 116.067 85.4131 88.88 84.8843 87.7344C84.7521 87.448 84.7962 87.1176 85.0165 86.8752C89.3566 82.2046 93.9612 76.9171 95.0627 75.2207C93.0358 74.8682 85.2588 75.3309 74.1331 77.1815C73.7145 77.2476 73.3179 76.9612 73.2519 76.5426C73.1858 76.124 73.4722 75.7274 73.8908 75.6613C79.1562 74.7801 84.3556 74.1412 88.5415 73.8107C95.4373 73.26 96.1643 73.8989 96.4727 74.1632C96.7151 74.3615 96.8472 74.6259 96.8472 74.9343C96.8472 75.3749 96.8472 75.9698 91.4276 82.1385C89.4007 84.4518 87.3298 86.699 86.5366 87.5802C88.2771 91.2815 99.6232 115.582 100.637 117.499C100.835 117.873 100.681 118.336 100.306 118.534C100.152 118.556 100.042 118.6 99.9096 118.6Z" fill="#0A1931"/>
<path d="M107.466 129.66C107.246 129.66 107.026 129.572 106.893 129.395C104.867 127.06 103.523 124.284 102.465 122.081C101.716 120.517 100.703 118.402 100.196 118.556C99.7994 118.688 98.8961 119.019 97.6403 119.481C91.5818 121.706 77.5038 126.928 71.7537 127.346C71.3351 127.369 70.9606 127.06 70.9385 126.641C70.9165 126.223 71.225 125.848 71.6435 125.826C77.1513 125.43 91.0971 120.274 97.0675 118.071C98.3453 117.609 99.2486 117.256 99.6892 117.124C101.474 116.529 102.531 118.688 103.853 121.442C104.889 123.579 106.166 126.245 108.061 128.426C108.347 128.756 108.303 129.241 107.995 129.506C107.819 129.594 107.642 129.66 107.466 129.66Z" fill="#0A1931"/>
<path d="M98.5214 115.714C98.1689 115.714 97.8384 115.472 97.7723 115.119C97.0894 112.057 98.6316 108.157 101.496 105.624C103.677 103.707 106.232 102.936 108.678 103.443C108.832 101.923 109.317 99.1247 111.057 98.1994C111.123 96.8335 111.41 93.661 112.357 92.6035C112.643 92.295 113.128 92.251 113.437 92.5374C113.745 92.8238 113.789 93.3085 113.503 93.6169C113.018 94.1457 112.643 96.7013 112.577 98.7281C112.555 99.0586 112.335 99.345 112.004 99.4331C110.661 99.8077 110.176 102.958 110.154 104.412C110.154 104.655 110.022 104.897 109.823 105.029C109.625 105.161 109.361 105.205 109.118 105.117C106.144 104.06 103.699 105.69 102.509 106.725C100.086 108.862 98.7197 112.233 99.2705 114.723C99.3586 115.141 99.0942 115.56 98.6756 115.648C98.6316 115.714 98.5875 115.714 98.5214 115.714Z" fill="#0A1931"/>
<path d="M120.905 151.162C120.817 151.162 120.729 151.14 120.663 151.118C120.266 150.986 120.046 150.545 120.178 150.127C120.266 149.906 127.955 127.611 131.37 108.4C134.873 88.6597 128.969 84.0331 122.712 82.1164C116.455 80.1997 97.9048 90.4001 90.9209 94.2556C90.304 94.5861 89.7533 94.8945 89.2686 95.1589C88.8941 95.3571 88.4314 95.225 88.2331 94.8504C88.0348 94.4759 88.167 94.0133 88.5416 93.815C89.0262 93.5506 89.577 93.2642 90.1719 92.9117C103.082 85.7956 117.094 78.7897 123.175 80.6403C127.647 82.0063 130.511 84.3856 132.207 88.1309C134.3 92.7575 134.521 99.477 132.89 108.642C129.453 127.963 121.721 150.391 121.654 150.611C121.522 150.964 121.214 151.162 120.905 151.162Z" fill="#0A1931"/>
<path d="M88.343 135.476C85.7433 135.476 83.2317 135.168 81.271 134.617C80.8524 134.507 80.61 134.088 80.7422 133.669C80.8524 133.251 81.271 133.009 81.6896 133.141C87.3295 134.705 96.4504 134 99.3586 130.783C99.645 130.475 100.13 130.431 100.438 130.717C100.747 131.004 100.791 131.488 100.504 131.797C98.1468 134.419 93.1237 135.476 88.343 135.476Z" fill="#0A1931"/>
<path d="M148.048 195.18C147.783 195.18 147.541 195.048 147.387 194.806C147.144 194.409 122.976 154.907 113.238 139.64C113.018 139.287 113.106 138.803 113.481 138.582C113.833 138.362 114.318 138.45 114.538 138.825C124.298 154.114 148.466 193.616 148.708 194.013C148.929 194.365 148.819 194.85 148.444 195.07C148.312 195.136 148.18 195.18 148.048 195.18Z" fill="#0A1931"/>
<path d="M80.9185 200.997C80.588 200.997 80.3016 200.799 80.1914 200.468C80.0813 200.138 69.0657 168.214 65.2102 157.97C65.056 157.573 65.2543 157.133 65.6509 156.978C66.0474 156.824 66.4881 157.023 66.6423 157.419C70.4977 167.686 81.5354 199.631 81.6455 199.961C81.7777 200.358 81.5794 200.798 81.1608 200.953C81.0947 200.975 81.0066 200.997 80.9185 200.997Z" fill="#0A1931"/>
<path d="M69.8812 123.645C69.727 123.645 69.5948 123.601 69.4626 123.513C63.2278 119.393 56.8167 116.816 53.9306 116.485C52.0579 116.265 49.987 114.723 48.0042 113.247C46.462 112.101 44.8758 110.911 43.8624 110.779C41.5931 110.471 40.7339 110.735 40.7119 110.735C40.3374 110.889 39.9188 110.691 39.7425 110.316C38.0021 106.329 32.6485 106.769 32.5824 106.791C32.1638 106.836 31.7893 106.527 31.7452 106.086C31.7012 105.668 32.0096 105.293 32.4502 105.249C32.7146 105.227 38.4868 104.765 40.8882 109.149C41.483 109.083 42.4964 109.039 44.0606 109.259C45.4706 109.457 47.145 110.691 48.9075 112.035C50.648 113.335 52.6528 114.833 54.0848 114.987C57.2132 115.34 63.8006 117.961 70.2998 122.257C70.6523 122.5 70.7624 122.962 70.5201 123.337C70.3659 123.535 70.1235 123.645 69.8812 123.645Z" fill="#0A1931"/>
<path d="M67.7439 163.94C67.5897 163.94 67.4355 163.896 67.2812 163.786C65.5848 162.53 63.6681 161.164 61.6413 159.732C47.4312 149.62 25.9728 134.352 19.9142 116.705C16.4994 106.769 21.4344 98.4635 28.0437 95.3791C32.8025 93.154 37.7595 94.7402 42.5623 96.2604C44.2146 96.7891 45.7788 97.2738 47.321 97.6263C47.7396 97.7144 48.004 98.133 47.9158 98.5516C47.8277 98.9702 47.4091 99.2346 46.9905 99.1465C45.3823 98.794 43.7079 98.2652 42.0996 97.7365C37.5832 96.3045 32.9126 94.8284 28.7047 96.7891C22.7122 99.5871 18.2619 107.144 21.3683 116.221C27.2726 133.405 48.4886 148.496 62.5225 158.498C64.5494 159.953 66.4661 161.318 68.1845 162.574C68.537 162.817 68.6031 163.301 68.3608 163.654C68.2286 163.83 67.9862 163.94 67.7439 163.94Z" fill="#0A1931"/>
<path d="M227.162 84.4076C227.162 84.4076 218.768 90.0035 209.889 90.2018C208.567 118.71 223.835 122.037 223.835 122.037C223.835 122.037 239.367 122.389 243.068 94.1674C234.388 91.8761 227.162 84.4076 227.162 84.4076Z" fill="white"/>
<path d="M223.857 122.786C223.835 122.786 223.813 122.786 223.813 122.786C223.769 122.786 223.725 122.786 223.659 122.764C223.482 122.72 219.539 121.817 215.772 117.278C212.357 113.158 208.435 105.117 209.118 90.1357C209.14 89.7391 209.471 89.4087 209.867 89.4087C218.415 89.2324 226.655 83.8127 226.721 83.7467C227.029 83.5484 227.448 83.5924 227.712 83.8568C227.779 83.9229 234.917 91.1932 243.244 93.3963C243.619 93.4844 243.861 93.859 243.817 94.2335C242.253 106.152 238.464 114.568 232.537 119.261C228.241 122.676 224.364 122.786 223.857 122.786ZM210.616 90.9288C210.088 104.963 213.745 112.453 216.939 116.309C220.112 120.12 223.372 121.112 223.901 121.244C224.43 121.222 227.889 121.023 231.656 117.983C235.401 114.965 240.248 108.488 242.187 94.6961C234.851 92.5371 228.726 86.9852 227.051 85.3549C225.091 86.5887 218.173 90.5322 210.616 90.9288Z" fill="#0A1931"/>
<path d="M216.587 102.628C216.499 103.443 221.874 109.105 223.262 109.832C224.628 110.581 236.657 100.865 236.745 99.5653C236.833 98.2655 234.74 96.7012 234.101 97.208C233.463 97.7147 225.179 105.382 224.121 104.963C223.064 104.544 220.596 100.094 219.803 99.9178C219.032 99.7856 216.763 101.13 216.587 102.628Z" fill="#FFC947"/>
<path d="M223.46 110.228C223.306 110.228 223.196 110.184 223.108 110.14C221.94 109.501 216.146 103.729 216.256 102.606C216.344 101.835 216.917 101.019 217.82 100.358C218.393 99.9399 219.296 99.4992 219.869 99.6094C220.354 99.7196 220.971 100.557 222.05 102.055C222.821 103.112 223.769 104.456 224.209 104.655C224.87 104.655 227.778 102.363 232.846 97.8469C233.374 97.3622 233.727 97.0538 233.859 96.9657C234.167 96.7233 234.674 96.7453 235.225 97.0317C236.15 97.5164 237.098 98.618 237.031 99.5874C236.943 100.975 228.549 107.673 225.179 109.545C224.297 110.074 223.769 110.228 223.46 110.228ZM216.917 102.65C217.049 103.487 222.072 108.818 223.416 109.545C223.416 109.545 223.747 109.634 225.267 108.752C229.453 106.285 236.238 100.403 236.415 99.5433C236.459 98.8603 235.688 98.0011 234.961 97.6046C234.586 97.4063 234.366 97.4063 234.3 97.4724C234.189 97.5605 233.837 97.891 233.33 98.3316C226.434 104.456 224.65 105.536 224.011 105.271C223.416 105.029 222.645 103.994 221.544 102.429C220.949 101.592 220.045 100.336 219.759 100.248C219.561 100.204 218.944 100.38 218.217 100.887C217.468 101.416 217.005 102.077 216.917 102.65Z" fill="#FFC947"/>
<path d="M231.193 4.98562V17.0367C231.193 17.1028 231.171 17.1689 231.127 17.2129C231.083 17.257 231.017 17.279 230.951 17.279H227.91C227.844 17.279 227.778 17.257 227.734 17.2129C227.69 17.1689 227.668 17.1028 227.668 17.0367V7.91576H226.765C226.699 7.91576 226.633 7.89373 226.589 7.84967C226.545 7.80561 226.523 7.73951 226.523 7.67342V4.98562C226.523 4.91952 226.545 4.85343 226.589 4.80937C226.633 4.76531 226.699 4.74327 226.765 4.74327H230.951C231.017 4.74327 231.083 4.76531 231.127 4.80937C231.171 4.85343 231.193 4.91952 231.193 4.98562Z" fill="#0A1931"/>
<path d="M230.951 17.6316H227.911C227.756 17.6316 227.624 17.5875 227.514 17.4774C227.404 17.3672 227.338 17.213 227.338 17.0588V8.26833H226.765C226.589 8.26833 226.456 8.20224 226.346 8.09208C226.236 7.98193 226.192 7.84973 226.192 7.69552V5.00772C226.192 4.8535 226.258 4.69928 226.368 4.58913C226.478 4.47897 226.611 4.41287 226.787 4.41287H230.973C231.127 4.41287 231.259 4.47897 231.369 4.58913C231.48 4.69928 231.546 4.83147 231.546 5.00772V17.0588C231.546 17.213 231.48 17.3672 231.369 17.4774C231.237 17.5655 231.105 17.6316 230.951 17.6316ZM227.999 16.9706H230.863V5.07381H226.831V7.60739H227.646C227.822 7.60739 227.977 7.76161 227.977 7.93786V16.9706H227.999ZM230.863 4.98568H231.193H230.863Z" fill="#0A1931"/>
<path d="M280.323 168.545C280.609 169.823 280.543 170.924 280.168 171.827C279.794 172.753 279.045 173.502 277.899 174.119L278.626 177.467C278.648 177.556 278.626 177.644 278.582 177.732C278.538 177.82 278.45 177.864 278.362 177.886L273.956 178.855C273.868 178.877 273.779 178.855 273.691 178.811C273.603 178.767 273.559 178.679 273.537 178.591L272.898 175.617C272.061 175.771 271.312 175.859 270.607 175.925C270.519 175.925 270.431 175.903 270.365 175.837C270.299 175.771 270.232 175.705 270.21 175.595L269.77 171.96C269.748 171.85 269.792 171.761 269.858 171.673C269.924 171.585 270.034 171.563 270.144 171.563C270.431 171.563 270.717 171.563 271.004 171.541C271.29 171.519 271.686 171.497 272.149 171.453C272.612 171.409 273.052 171.343 273.427 171.255C273.846 171.167 274.198 171.034 274.484 170.858C274.749 170.682 274.925 170.484 275.013 170.285C275.101 170.087 275.145 169.911 275.167 169.757C275.189 169.602 275.189 169.47 275.167 169.36C275.145 169.228 275.079 169.118 275.013 168.985C274.925 168.853 274.793 168.699 274.617 168.501C274.418 168.302 274.132 168.148 273.757 168.016C273.361 167.884 272.898 167.818 272.391 167.796C271.797 167.796 271.202 167.686 270.607 167.487C270.012 167.289 269.439 167.003 268.889 166.628C268.338 166.254 267.853 165.747 267.412 165.086C266.994 164.425 266.685 163.698 266.487 162.861C266.223 161.693 266.311 160.636 266.729 159.71C267.148 158.785 267.875 158.014 268.911 157.375L268.161 153.938C268.139 153.85 268.161 153.74 268.206 153.652C268.25 153.564 268.338 153.52 268.426 153.498L272.832 152.528C272.92 152.506 273.03 152.528 273.118 152.572C273.207 152.638 273.273 152.704 273.273 152.815L273.912 155.789C274.705 155.657 275.498 155.546 276.291 155.458C276.379 155.458 276.467 155.48 276.555 155.546C276.643 155.613 276.688 155.679 276.688 155.789L277.128 159.424C277.128 159.534 277.106 159.622 277.04 159.71C276.974 159.798 276.886 159.843 276.776 159.843C275.498 159.843 274.352 159.953 273.339 160.151C272.92 160.239 272.568 160.349 272.303 160.548C272.039 160.724 271.841 160.922 271.753 161.142C271.664 161.363 271.62 161.539 271.598 161.671C271.576 161.825 271.576 161.958 271.598 162.068C271.62 162.178 271.664 162.31 271.753 162.442C271.841 162.574 271.973 162.729 272.171 162.927C272.369 163.103 272.656 163.279 273.052 163.412C273.449 163.544 273.912 163.61 274.418 163.632C275.013 163.654 275.608 163.764 276.203 163.962C276.798 164.161 277.371 164.447 277.921 164.822C278.472 165.196 278.957 165.725 279.375 166.364C279.838 166.981 280.146 167.708 280.323 168.545Z" fill="#0A1931"/>
<path d="M273.868 179.186C273.735 179.186 273.625 179.142 273.493 179.076C273.339 178.966 273.229 178.833 273.185 178.635L272.612 175.969C271.885 176.079 271.224 176.168 270.607 176.234C270.431 176.256 270.277 176.19 270.122 176.079C269.99 175.969 269.902 175.815 269.858 175.661V175.639L269.417 172.004C269.395 171.783 269.461 171.607 269.594 171.453C269.726 171.299 269.902 171.233 270.122 171.233C270.387 171.233 270.673 171.233 270.982 171.211C271.268 171.189 271.643 171.167 272.105 171.122C272.568 171.078 272.986 171.012 273.361 170.924C273.758 170.858 274.066 170.726 274.308 170.572C274.529 170.44 274.661 170.285 274.727 170.153C274.793 169.977 274.837 169.823 274.859 169.712C274.881 169.602 274.881 169.514 274.859 169.426C274.837 169.338 274.793 169.25 274.727 169.14C274.683 169.074 274.573 168.919 274.374 168.721C274.22 168.567 273.978 168.435 273.625 168.325C273.273 168.214 272.832 168.148 272.348 168.126C271.709 168.126 271.092 167.994 270.453 167.796C269.836 167.575 269.219 167.289 268.646 166.893C268.051 166.496 267.523 165.945 267.082 165.262C266.641 164.579 266.311 163.786 266.113 162.927C265.848 161.693 265.936 160.57 266.377 159.578C266.796 158.653 267.501 157.86 268.492 157.221L267.787 154.026C267.743 153.85 267.787 153.674 267.875 153.52C267.963 153.343 268.118 153.233 268.316 153.189L272.722 152.22C272.898 152.176 273.097 152.22 273.251 152.308C273.405 152.418 273.515 152.572 273.559 152.748L274.132 155.414C274.837 155.304 275.52 155.216 276.225 155.128C276.401 155.106 276.555 155.172 276.71 155.26C276.864 155.37 276.974 155.546 276.996 155.745L277.415 159.38C277.437 159.578 277.371 159.754 277.238 159.909C277.106 160.063 276.908 160.151 276.71 160.151C275.454 160.151 274.33 160.261 273.361 160.459C272.986 160.525 272.678 160.636 272.436 160.79C272.215 160.922 272.083 161.076 272.017 161.23C271.951 161.407 271.885 161.561 271.885 161.671C271.863 161.781 271.863 161.869 271.885 161.958C271.907 162.002 271.929 162.09 271.995 162.222C272.039 162.288 272.127 162.42 272.348 162.64C272.502 162.795 272.766 162.927 273.097 163.037C273.449 163.147 273.89 163.213 274.374 163.235C274.991 163.257 275.63 163.368 276.247 163.588C276.864 163.786 277.481 164.095 278.054 164.491C278.648 164.888 279.155 165.438 279.618 166.121C280.058 166.804 280.389 167.575 280.565 168.435C280.852 169.779 280.807 170.946 280.389 171.916C280.014 172.841 279.265 173.634 278.208 174.251L278.891 177.357C278.935 177.534 278.891 177.71 278.803 177.864C278.693 178.018 278.56 178.128 278.362 178.172L273.956 179.142C273.978 179.186 273.934 179.186 273.868 179.186ZM272.898 175.286C273.053 175.286 273.185 175.397 273.229 175.551L273.868 178.525L273.89 178.547L278.318 177.578L278.34 177.556L277.613 174.207C277.591 174.053 277.657 173.92 277.767 173.854C278.825 173.282 279.53 172.555 279.882 171.717C280.235 170.858 280.279 169.823 280.014 168.633C279.838 167.84 279.552 167.135 279.155 166.54C278.759 165.923 278.296 165.438 277.789 165.086C277.26 164.733 276.71 164.447 276.137 164.271C275.564 164.095 275.013 163.984 274.44 163.962C273.89 163.94 273.405 163.874 272.964 163.72C272.524 163.566 272.193 163.39 271.951 163.169C271.731 162.949 271.576 162.773 271.488 162.618C271.378 162.442 271.334 162.31 271.29 162.156C271.246 162.002 271.246 161.825 271.268 161.649C271.29 161.473 271.356 161.275 271.444 161.032C271.554 160.768 271.775 160.525 272.105 160.305C272.414 160.107 272.81 159.953 273.251 159.865C274.264 159.666 275.432 159.556 276.732 159.556C276.754 159.534 276.754 159.512 276.754 159.512L276.335 155.899C276.313 155.877 276.313 155.877 276.291 155.877C275.52 155.965 274.727 156.075 273.956 156.207C273.78 156.229 273.625 156.119 273.581 155.943L272.942 152.969C272.942 152.969 272.942 152.947 272.92 152.947C272.898 152.925 272.898 152.925 272.898 152.947L268.492 153.916C268.47 153.938 268.47 153.938 268.47 153.96L269.219 157.397C269.241 157.529 269.197 157.683 269.065 157.75C268.096 158.344 267.391 159.093 267.016 159.953C266.619 160.812 266.553 161.803 266.796 162.883C266.972 163.676 267.258 164.381 267.655 164.998C268.051 165.615 268.514 166.099 269.043 166.452C269.572 166.804 270.122 167.091 270.673 167.289C271.224 167.487 271.797 167.575 272.37 167.597C272.92 167.62 273.427 167.686 273.846 167.84C274.286 167.994 274.617 168.17 274.837 168.391C275.035 168.611 275.19 168.787 275.3 168.941C275.388 169.118 275.476 169.272 275.498 169.426C275.52 169.58 275.542 169.735 275.52 169.933C275.498 170.109 275.432 170.307 275.344 170.55C275.234 170.814 275.013 171.056 274.683 171.277C274.374 171.475 273.978 171.629 273.515 171.717C273.119 171.805 272.678 171.872 272.193 171.916C271.709 171.96 271.334 171.982 271.026 172.004C270.717 172.026 270.431 172.026 270.144 172.026C270.122 172.026 270.122 172.026 270.122 172.026C270.122 172.026 270.122 172.026 270.122 172.048L270.541 175.661C270.541 175.683 270.563 175.683 270.563 175.705C271.246 175.661 272.017 175.551 272.832 175.419C272.854 175.286 272.876 175.286 272.898 175.286Z" fill="#0A1931"/>
<path d="M253.599 204.72C254.524 203.134 290.611 200.38 292.021 201.614C293.431 202.847 293.806 209.369 291.559 209.787C289.29 210.184 255.229 213.246 254.304 212.409C253.379 211.572 252.916 205.888 253.599 204.72Z" fill="white"/>
<path d="M256.177 213.334C254.128 213.334 253.93 213.158 253.775 213.004C252.542 211.858 252.123 205.755 252.916 204.345C253.159 203.949 253.599 203.574 256.882 203.046C261.178 202.341 269.462 201.525 277.481 200.997C291.427 200.093 292.22 200.798 292.528 201.041C293.872 202.208 294.269 206.086 293.652 208.333C293.189 209.963 292.33 210.448 291.691 210.558C290.524 210.779 281.425 211.638 272.48 212.343C263.051 213.092 258.468 213.334 256.177 213.334ZM254.745 211.748C255.824 211.902 261.09 211.704 272.965 210.756C281.601 210.074 290.325 209.236 291.405 209.038C291.691 208.994 291.978 208.575 292.154 207.914C292.705 205.91 292.176 202.935 291.559 202.252C290.479 201.922 283.275 202.054 272.81 202.869C262.037 203.707 255.296 204.698 254.216 205.205C253.798 206.284 254.172 210.801 254.745 211.748Z" fill="#0A1931"/>
<path d="M251.837 196.965C252.74 195.379 288.827 192.405 290.259 193.638C291.691 194.872 292.33 200.446 290.083 200.865C287.814 201.283 253.533 205.491 252.608 204.654C251.683 203.817 251.176 198.133 251.837 196.965Z" fill="white"/>
<path d="M253.754 205.535C252.41 205.535 252.233 205.381 252.079 205.249C250.823 204.103 250.383 198.001 251.176 196.613C251.418 196.194 251.837 195.842 255.119 195.291C259.416 194.564 267.677 193.682 275.697 193.132C289.642 192.14 290.435 192.845 290.744 193.088C292 194.167 292.683 197.472 292.088 199.609C291.669 201.151 290.722 201.548 290.193 201.658C289.025 201.878 279.728 203.046 270.894 204.037C260.231 205.183 255.714 205.535 253.754 205.535ZM253.049 203.993C256.045 204.324 286.712 200.71 289.929 200.116C290.303 200.049 290.524 199.565 290.634 199.19C291.074 197.582 290.524 195.004 289.819 194.299C288.739 193.969 281.535 194.145 271.07 195.026C260.297 195.93 253.555 196.943 252.476 197.472C252.057 198.529 252.454 203.002 253.049 203.993Z" fill="#0A1931"/>
<path d="M254.128 188.241C255.031 186.654 291.977 184.848 293.409 186.081C294.841 187.315 295.083 192.933 292.814 193.352C290.545 193.77 255.802 196.767 254.877 195.929C253.973 195.092 253.467 189.408 254.128 188.241Z" fill="white"/>
<path d="M256.838 196.833C254.745 196.833 254.524 196.657 254.37 196.502C253.114 195.357 252.674 189.254 253.467 187.866C253.709 187.448 254.194 187.183 256.155 186.853C260.429 186.126 269.88 185.487 277.371 185.178C281.557 185.002 285.412 184.914 288.21 184.936C293.233 184.958 293.608 185.288 293.894 185.531C295.172 186.654 295.546 189.827 294.996 191.832C294.643 193.132 293.916 193.947 292.925 194.123C291.669 194.365 281.975 195.225 273.383 195.885C263.843 196.612 259.173 196.833 256.838 196.833ZM255.339 195.247C256.419 195.401 261.773 195.225 273.912 194.277C282.768 193.594 291.647 192.757 292.682 192.581C293.167 192.493 293.431 191.788 293.541 191.391C294.004 189.717 293.586 187.359 292.947 186.698C291.889 186.346 284.509 186.302 273.78 186.853C262.632 187.425 255.868 188.219 254.745 188.725C254.348 189.827 254.767 194.299 255.339 195.247Z" fill="#0A1931"/>
</svg>
