<svg width="25" height="24" viewBox="0 0 25 24" fill="none" xmlns="http://www.w3.org/2000/svg">
<path d="M3.91 13.91C4.96486 13.91 5.82 13.0549 5.82 12C5.82 10.9451 4.96486 10.09 3.91 10.09C2.85514 10.09 2 10.9451 2 12C2 13.0549 2.85514 13.91 3.91 13.91Z" stroke="white" stroke-width="1.5" stroke-miterlimit="10"/>
<path d="M12.5 13.91C13.5548 13.91 14.41 13.0549 14.41 12C14.41 10.9451 13.5548 10.09 12.5 10.09C11.4451 10.09 10.59 10.9451 10.59 12C10.59 13.0549 11.4451 13.91 12.5 13.91Z" stroke="white" stroke-width="1.5" stroke-miterlimit="10"/>
<path d="M21.0901 13.91C22.1449 13.91 23.0001 13.0549 23.0001 12C23.0001 10.9451 22.1449 10.09 21.0901 10.09C20.0352 10.09 19.1801 10.9451 19.1801 12C19.1801 13.0549 20.0352 13.91 21.0901 13.91Z" stroke="white" stroke-width="1.5" stroke-miterlimit="10"/>
</svg>
