<svg width="227" height="63" viewBox="0 0 227 63" fill="none" xmlns="http://www.w3.org/2000/svg">
<path d="M95.0191 47.0247V41.4994H102.401C103.724 41.4994 104.717 41.154 105.379 40.4634C106.041 39.7727 106.372 38.7943 106.372 37.5281C106.372 36.2618 106.041 35.2978 105.379 34.6359C104.717 33.9453 103.724 33.5999 102.401 33.5999H95.0191V29.3264H102.055C104.242 29.3264 106.185 29.5998 107.883 30.1466C109.581 30.6646 110.919 31.5135 111.897 32.6934C112.876 33.8733 113.365 35.4705 113.365 37.4849V38.0892C113.365 39.9598 112.933 41.5713 112.07 42.9239C111.207 44.2476 109.94 45.2692 108.271 45.9887C106.602 46.6793 104.53 47.0247 102.055 47.0247H95.0191ZM88.9758 47.0247V15.0384H95.8824V47.0247H88.9758ZM95.0191 32.4776V28.2473H101.235C102.588 28.2473 103.566 27.902 104.17 27.2113C104.775 26.5206 105.077 25.5997 105.077 24.4486C105.077 23.24 104.775 22.2903 104.17 21.5997C103.566 20.909 102.588 20.5637 101.235 20.5637H95.0191V15.0384H100.803C104.429 15.0384 107.206 15.801 109.135 17.3262C111.091 18.8514 112.07 21.0241 112.07 23.8443V24.4918C112.07 26.4487 111.566 28.0171 110.559 29.1969C109.581 30.3768 108.242 31.2258 106.545 31.7438C104.875 32.233 102.962 32.4776 100.803 32.4776H95.0191ZM131.036 46.8088V39.8159H129.871V32.2186C129.871 31.0099 129.583 30.1034 129.008 29.4991C128.432 28.8948 127.511 28.5926 126.245 28.5926C125.612 28.5926 124.777 28.607 123.741 28.6358C122.705 28.6646 121.641 28.7077 120.547 28.7653C119.453 28.8228 118.461 28.8804 117.569 28.9379V23.1105C118.23 23.0529 119.007 22.9954 119.899 22.9378C120.792 22.8803 121.712 22.8371 122.662 22.8083C123.612 22.7795 124.504 22.7652 125.338 22.7652C127.756 22.7652 129.785 23.1105 131.425 23.8011C133.094 24.4918 134.36 25.5422 135.224 26.9523C136.087 28.3336 136.519 30.1178 136.519 32.3049V46.8088H131.036ZM123.482 47.4132C121.784 47.4132 120.288 47.111 118.993 46.5067C117.727 45.9023 116.734 45.039 116.015 43.9167C115.295 42.7656 114.935 41.3986 114.935 39.8159C114.935 38.0892 115.381 36.6791 116.274 35.5856C117.166 34.4632 118.417 33.6431 120.029 33.1251C121.641 32.5783 123.497 32.3049 125.597 32.3049H130.648V36.1467H125.554C124.346 36.1467 123.41 36.4489 122.748 37.0532C122.115 37.6288 121.799 38.4202 121.799 39.4274C121.799 40.377 122.115 41.154 122.748 41.7584C123.41 42.3339 124.346 42.6217 125.554 42.6217C126.331 42.6217 127.022 42.4922 127.626 42.2332C128.259 41.9454 128.777 41.4706 129.18 40.8087C129.583 40.1468 129.813 39.2259 129.871 38.0461L131.511 39.7727C131.367 41.413 130.964 42.7944 130.303 43.9167C129.669 45.039 128.777 45.9023 127.626 46.5067C126.504 47.111 125.123 47.4132 123.482 47.4132ZM140.652 46.8088V23.1537H146.134V33.2978H145.745C145.745 30.8804 146.048 28.866 146.652 27.2545C147.285 25.6429 148.235 24.4343 149.501 23.6285C150.767 22.8227 152.307 22.4198 154.12 22.4198H154.422C157.184 22.4198 159.285 23.3263 160.724 25.1393C162.192 26.9235 162.926 29.643 162.926 33.2978V46.8088H156.019V32.9093C156.019 31.643 155.645 30.607 154.897 29.8013C154.148 28.9955 153.141 28.5926 151.875 28.5926C150.58 28.5926 149.53 29.0099 148.724 29.8444C147.947 30.6502 147.558 31.715 147.558 33.0388V46.8088H140.652ZM183.747 46.8088L176.279 35.7582H172.955L182.581 23.1537H189.833L180.768 34.8949L180.854 31.5279L191.517 46.8088H183.747ZM167.084 46.8088V15.2974H173.991V46.8088H167.084ZM193.018 46.8088V15.2974H199.968V46.8088H193.018ZM190.212 20.391V15.2974H199.968V20.391H190.212ZM204.346 56.1759V50.3053H209.267C210.016 50.3053 210.649 50.2046 211.167 50.0032C211.685 49.8305 212.102 49.5283 212.419 49.0967C212.735 48.665 212.994 48.0751 213.196 47.3268L219.023 23.1537H225.584L218.98 48.7082C218.519 50.5499 217.872 52.0176 217.037 53.1111C216.232 54.2047 215.138 54.9817 213.757 55.4421C212.404 55.9313 210.678 56.1759 208.577 56.1759H204.346ZM211.771 46.2908V40.895H216.778V46.2908H211.771ZM208.922 46.2908L201.67 23.1537H208.62L215.483 46.2908H208.922Z" fill="white"/>
<rect x="4" y="4" width="63.9171" height="55.4455" rx="15.2352" fill="white" stroke="white" stroke-width="6.348" stroke-miterlimit="10" stroke-linecap="round" stroke-linejoin="round"/>
<path d="M71.0862 21.5655H45.3773C39.7679 21.5655 35.2205 26.1129 35.2205 31.7223C35.2205 37.3318 39.7679 41.8791 45.3773 41.8791H71.0862V21.5655Z" fill="#FFC947"/>
<circle cx="45.0363" cy="31.7223" r="5.0784" fill="white"/>
</svg>
