<?xml version="1.0" encoding="utf-8"?>
<svg xmlns="http://www.w3.org/2000/svg" viewBox="0 0 32 32" width="30" height="30">
  <path d="M16 4C12.683594 4 9.703125 5.351563 7.53125 7.53125L5.65625 5.65625L5 12L11 11L8.9375 8.9375C10.746094 7.125 13.230469 6 16 6C21.535156 6 26 10.464844 26 16C26 21.535156 21.535156 26 16 26L15 26L15 28L17 28L17 27.9375C23.144531 27.421875 28 22.277344 28 16C28 9.382813 22.617188 4 16 4 Z M 15 10L15 11.1875C13.84375 11.609375 13 12.714844 13 14C13 14.832031 13.460938 15.542969 13.96875 15.96875C14.476563 16.394531 15.0625 16.652344 15.5625 16.90625C16.0625 17.160156 16.507813 17.394531 16.75 17.59375C16.992188 17.792969 17 17.847656 17 18C17 18.523438 16.546875 19 16 19C15.433594 19 15 18.566406 15 18L13 18C13 19.292969 13.84375 20.394531 15 20.8125L15 22L17 22L17 20.8125C18.160156 20.390625 19 19.28125 19 18C19 17.167969 18.507813 16.484375 18 16.0625C17.492188 15.640625 16.9375 15.375 16.4375 15.125C15.9375 14.875 15.523438 14.640625 15.28125 14.4375C15.039063 14.234375 15 14.167969 15 14C15 13.460938 15.445313 13 16 13C16.566406 13 17 13.433594 17 14L19 14C19 12.707031 18.15625 11.605469 17 11.1875L17 10 Z M 5 15C4.449219 15 4 15.449219 4 16C4 16.550781 4.449219 17 5 17C5.550781 17 6 16.550781 6 16C6 15.449219 5.550781 15 5 15 Z M 5.84375 19.21875C5.714844 19.21875 5.597656 19.226563 5.46875 19.28125C4.957031 19.492188 4.695313 20.082031 4.90625 20.59375C5.117188 21.105469 5.707031 21.335938 6.21875 21.125C6.730469 20.914063 6.960938 20.324219 6.75 19.8125C6.589844 19.429688 6.234375 19.222656 5.84375 19.21875 Z M 8.21875 22.78125C7.960938 22.78125 7.695313 22.867188 7.5 23.0625C7.109375 23.453125 7.109375 24.109375 7.5 24.5C7.890625 24.890625 8.546875 24.890625 8.9375 24.5C9.328125 24.109375 9.328125 23.453125 8.9375 23.0625C8.742188 22.867188 8.476563 22.78125 8.21875 22.78125 Z M 11.78125 25.15625C11.390625 25.160156 11.035156 25.398438 10.875 25.78125C10.664063 26.292969 10.894531 26.882813 11.40625 27.09375C11.917969 27.304688 12.507813 27.042969 12.71875 26.53125C12.929688 26.019531 12.699219 25.460938 12.1875 25.25C12.058594 25.195313 11.910156 25.15625 11.78125 25.15625Z" fill="#0A1931" />
</svg>